<?xml version="1.0" encoding="utf-8"?>
<!-- Generator: Adobe Illustrator 16.0.0, SVG Export Plug-In . SVG Version: 6.00 Build 0)  -->
<!DOCTYPE svg PUBLIC "-//W3C//DTD SVG 1.1//EN" "http://www.w3.org/Graphics/SVG/1.1/DTD/svg11.dtd">
<svg version="1.1" id="Layer_1" xmlns="http://www.w3.org/2000/svg" xmlns:xlink="http://www.w3.org/1999/xlink" x="0px" y="0px"
	 width="512px" height="512px" viewBox="0 0 512 512" enable-background="new 0 0 512 512" xml:space="preserve">
<g>
	<path d="M338,381.996h-26c-28.719,0-52-23.281-52-52v-16.719c11.5-13.656,19.75-29.844,24.875-46.906
		c0.531-2.875,3.313-4.313,5.156-6.313c9.969-9.938,11.906-26.734,4.438-38.703c-1-1.813-2.844-3.375-2.719-5.625
		c0-15.25,0.063-30.531-0.031-45.766c-0.406-18.391-5.656-37.516-18.563-51.141c-10.406-11.016-24.719-17.563-39.469-20.359
		c-18.625-3.563-38.125-3.375-56.594,1.313c-15.969,4.047-31.031,13.406-40.313,27.297c-8.219,12.078-11.844,26.734-12.438,41.188
		c-0.219,15.516-0.063,31.063-0.094,46.609c0.344,3.109-2.313,5.219-3.5,7.797c-7.031,12.766-3.938,30.141,7.375,39.422
		c2.875,1.969,3.406,5.594,4.438,8.719c4.938,15.344,13.125,29.563,23.438,41.938v17.25c0,28.719-23.281,52-52,52H78
		c0,0-47.125,13-78,78v26c0,14.375,11.625,26,26,26h364c14.375,0,26-11.625,26-26v-26C385.125,394.996,338,381.996,338,381.996z"/>
	<path d="M446,241.996h-22c-24.313,0-44-19.688-44-44V183.84c9.719-11.547,16.719-25.234,21.063-39.688
		c0.438-2.438,2.781-3.641,4.344-5.328c8.438-8.422,10.094-22.625,3.75-32.75c-0.844-1.531-2.406-2.859-2.281-4.766
		c0-12.906,0.031-25.828-0.031-38.719c-0.344-15.563-4.781-31.75-15.719-43.281C382.313,9.996,370.219,4.449,357.75,2.09
		c-15.781-3.016-32.281-2.859-47.906,1.109c-13.531,3.422-26.219,11.344-34.094,23.094c-7,10.219-10,22.625-10.531,34.844
		c-0.094,4.703-0.031,9.422-0.031,14.141c11.938,5.344,22.625,12.453,31.188,21.547c17,17.922,26.688,43.656,27.344,72.938
		c0.063,10.969,0.063,21.953,0.031,32.938v5.422c12.906,24.266,8.563,54.969-10.188,73.625c0,0.016,0,0.016-0.031,0.016
		c-5.281,15.516-12.469,29.734-21.531,42.422v5.813c0,11.031,8.969,20,20,20h26h4.344l4.156,1.156
		c0.438,0.125,1.688,0.531,2.625,0.844H490c12.156,0,22-9.844,22-22v-22C485.875,252.996,446,241.996,446,241.996z"/>
</g>
</svg>
